<svg class="hidden">
  <symbol version="1.0" xmlns="http://www.w3.org/2000/svg" viewBox="0 0 512 512" id="phone-icon">
    <path d="M96 .6C68.3 5.9 26.8 39.7 9.6 71.1 1.5 85.8-.3 95.6 1.1 117.3 5.7 191 42.5 270.7 106.4 346c12.3 14.5 48.6 50.5 63.1 62.6 72.9 61 146.5 95.3 219.4 102.4 21.2 2.1 30 1.2 43.5-4.3 13.2-5.4 24.6-13.6 39.2-28.1 15.1-15.1 24.1-26.8 31.2-40.5 6.7-12.9 8.6-19.1 8.6-28.1.1-6.8-.2-8.1-3.8-14.7-7.1-13.4-20.8-28.1-45.1-48.4-26.5-22.1-57.9-42.2-76.4-48.9-15.3-5.6-24.4-4-35.4 6-7.7 7-12.2 13.1-25.1 33.5-12.4 19.6-20.5 30.8-24.1 33.1-2.5 1.6-2.9 1.5-15.8-4.9-52.7-26-113.3-86.6-139.5-139.5l-6.5-13.3 2-2.7c2.8-3.8 12.3-10.8 30.8-22.5 21.1-13.3 28.9-19.1 35.4-26.3 10.1-11.1 11.7-20.1 6.1-35.5-10.5-29.1-53-86.8-80.8-110C117.9 3.2 106.7-1.4 96 .6zm13.6 29c11.6 7.7 33 31.1 50.7 55.4 15.1 20.8 29.4 45 31.3 53.2 1.2 5.2-5.1 10.2-45.2 35.8-19.8 12.7-30.1 24.5-32 36.5-.8 5.4 2 13.6 10.1 29.5 24.6 48.2 73.2 100.7 124.2 134.1 13.2 8.6 38.5 21.3 45.3 22.8 9.8 2.1 19-1.7 29-11.8 6.6-6.8 10.3-12 27.6-39.1 5.4-8.5 12.2-17.9 15.1-20.9 4.5-4.7 5.5-5.3 8-4.7 12.5 3 49.7 26.9 75.5 48.5 12.9 10.8 26.8 24.9 32.5 32.8 4 5.7 4.5 6.9 4 10.3-1.3 10.2-13.9 30-29.1 45.7-11.3 11.8-19.9 18.5-30.6 23.9-7 3.5-8.3 3.8-17.9 4.2-36.3 1.5-86.5-12.2-132.7-36.2C155.4 387.2 53.6 262 31.1 149.2c-3.4-17.2-5.5-37.1-4.9-46.8.8-12.6 8.4-26.6 23-42 13.3-14 30.5-26.6 43.6-32 7.8-3.2 10.4-3 16.8 1.2z"></path>
  </symbol>
</svg>